<svg width="25" height="29" viewBox="0 0 25 29" fill="none" xmlns="http://www.w3.org/2000/svg">
<path d="M21.6471 10.2341H20.7059V7.6756C20.7059 3.44378 16.9054 0 12.2353 0C7.56518 0 3.76471 3.44378 3.76471 7.6756V10.2341H2.82353C1.26682 10.2341 0 11.3821 0 12.7927V26.4382C0 27.8488 1.26682 28.9967 2.82353 28.9967H21.6471C23.2038 28.9967 24.4706 27.8488 24.4706 26.4382V12.7927C24.4706 11.3821 23.2038 10.2341 21.6471 10.2341ZM5.64706 7.6756C5.64706 4.38362 8.60235 1.70569 12.2353 1.70569C15.8682 1.70569 18.8235 4.38362 18.8235 7.6756V10.2341H5.64706V7.6756ZM22.5882 26.4382C22.5882 26.9089 22.1666 27.291 21.6471 27.291H2.82353C2.304 27.291 1.88235 26.9089 1.88235 26.4382V12.7927C1.88235 12.3219 2.304 11.9398 2.82353 11.9398H21.6471C22.1666 11.9398 22.5882 12.3219 22.5882 12.7927V26.4382Z" fill="url(#paint0_linear_6_574)"/>
<defs>
<linearGradient id="paint0_linear_6_574" x1="12.2353" y1="0" x2="12.2353" y2="28.9967" gradientUnits="userSpaceOnUse">
<stop stop-color="#FF8833"/>
<stop offset="1" stop-color="#E8701B"/>
</linearGradient>
</defs>
</svg>
