<svg width="16" height="14" viewBox="0 0 16 14" fill="none" xmlns="http://www.w3.org/2000/svg">
<path d="M3.5 10C2.673 10 2 9.327 2 8.5C2 7.673 2.673 7 3.5 7C4.327 7 5 7.673 5 8.5C5 9.327 4.327 10 3.5 10ZM3.5 8C3.224 8 3 8.224 3 8.5C3 8.776 3.224 9 3.5 9C3.776 9 4 8.776 4 8.5C4 8.224 3.776 8 3.5 8Z" fill="url(#paint0_linear_10_782)"/>
<path d="M12.5 10C11.673 10 11 9.327 11 8.5C11 7.673 11.673 7 12.5 7C13.327 7 14 7.673 14 8.5C14 9.327 13.327 10 12.5 10ZM12.5 8C12.224 8 12 8.224 12 8.5C12 8.776 12.224 9 12.5 9C12.776 9 13 8.776 13 8.5C13 8.224 12.776 8 12.5 8Z" fill="url(#paint1_linear_10_782)"/>
<path d="M14.958 5.907C14.828 5.115 14.405 2.693 13.947 1.776C13.642 1.166 12.859 0.699 11.621 0.39C10.615 0.139 9.329 0 8 0C6.671 0 5.385 0.138 4.379 0.39C3.141 0.7 2.358 1.166 2.053 1.776C1.595 2.692 1.172 5.115 1.042 5.907C0.343 6.386 0 7.079 0 8V10.5C0 11.152 0.418 11.708 1 11.914V13C1 13.551 1.449 14 2 14H3C3.551 14 4 13.551 4 13V12H12V13C12 13.551 12.449 14 13 14H14C14.551 14 15 13.551 15 13V11.914C15.582 11.708 16 11.152 16 10.5V8C16 7.079 15.657 6.386 14.958 5.907ZM2.947 2.224C3.244 1.631 5.115 1 8 1C10.885 1 12.756 1.63 13.053 2.224C13.34 2.799 13.659 4.32 13.856 5.407C13.758 5.378 13.657 5.351 13.553 5.327C13.286 5.264 12.998 5.213 12.69 5.171L9.791 3.094C9.567 2.933 9.254 2.985 9.093 3.209C8.932 3.433 8.984 3.746 9.208 3.907L10.774 5.029C9.924 5.001 8.992 5.001 7.999 5.001C7.882 5.001 7.766 5.001 7.65 5.001L4.776 3.085C4.546 2.932 4.236 2.994 4.083 3.224C3.93 3.454 3.992 3.764 4.222 3.917L5.866 5.013C4.525 5.037 3.359 5.11 2.446 5.327C2.342 5.352 2.241 5.379 2.143 5.407C2.341 4.32 2.659 2.799 2.947 2.224ZM3 13H2V12H3V13ZM13 13V12H14V13H13ZM15 10.5C15 10.776 14.776 11 14.5 11H1.5C1.224 11 1 10.776 1 10.5V8C1 7.076 1.486 6.583 2.678 6.299C3.933 6 5.818 6 8 6C10.182 6 12.066 6 13.322 6.299C14.514 6.583 15 7.076 15 8V10.5Z" fill="url(#paint2_linear_10_782)"/>
<defs>
<linearGradient id="paint0_linear_10_782" x1="8" y1="0" x2="8" y2="14" gradientUnits="userSpaceOnUse">
<stop stop-color="#FF8833"/>
<stop offset="1" stop-color="#E8701B"/>
</linearGradient>
<linearGradient id="paint1_linear_10_782" x1="8" y1="0" x2="8" y2="14" gradientUnits="userSpaceOnUse">
<stop stop-color="#FF8833"/>
<stop offset="1" stop-color="#E8701B"/>
</linearGradient>
<linearGradient id="paint2_linear_10_782" x1="8" y1="0" x2="8" y2="14" gradientUnits="userSpaceOnUse">
<stop stop-color="#FF8833"/>
<stop offset="1" stop-color="#E8701B"/>
</linearGradient>
</defs>
</svg>
