<svg width="20" height="19" viewBox="0 0 20 19" fill="none" xmlns="http://www.w3.org/2000/svg">
<path d="M19.871 11.165L11.042 1.40701C10.768 1.10401 10.398 0.937012 10 0.937012C9.603 0.937012 9.233 1.10401 8.958 1.40701L0.129001 11.165C-0.0559986 11.37 -0.0399986 11.686 0.164001 11.871C0.260001 11.958 0.380001 12 0.499001 12C0.635001 12 0.771001 11.945 0.870001 11.835L2.999 9.48201V17.5C2.999 18.327 3.672 19 4.499 19H15.499C16.326 19 16.999 18.327 16.999 17.5V9.48201L19.128 11.835C19.313 12.04 19.629 12.056 19.834 11.87C20.039 11.684 20.055 11.369 19.869 11.164L19.871 11.165ZM12 18H8V13.5C8 13.224 8.224 13 8.5 13H11.5C11.776 13 12 13.224 12 13.5V18ZM16 17.5C16 17.776 15.776 18 15.5 18H13V13.5C13 12.673 12.327 12 11.5 12H8.5C7.673 12 7 12.673 7 13.5V18H4.5C4.224 18 4 17.776 4 17.5V8.37701L9.7 2.07701C9.782 1.98601 9.889 1.93601 10 1.93601C10.111 1.93601 10.218 1.98601 10.3 2.07701L16 8.37701V17.5Z" fill="url(#paint0_linear_10_780)"/>
<defs>
<linearGradient id="paint0_linear_10_780" x1="9.99937" y1="0.937012" x2="9.99937" y2="19" gradientUnits="userSpaceOnUse">
<stop stop-color="#FF8833"/>
<stop offset="1" stop-color="#E8701B"/>
</linearGradient>
</defs>
</svg>
