<svg width="36" height="36" viewBox="0 0 36 36" fill="none" xmlns="http://www.w3.org/2000/svg">
<path d="M10.7999 0.399902C5.06589 0.399902 0.399902 5.06589 0.399902 10.7999V25.1999C0.399902 30.9339 5.06589 35.5999 10.7999 35.5999H25.1999C30.9339 35.5999 35.5999 30.9339 35.5999 25.1999V10.7999C35.5999 5.06589 30.9339 0.399902 25.1999 0.399902H10.7999ZM10.7999 1.9999H25.1999C30.0691 1.9999 33.9999 5.93072 33.9999 10.7999V25.1999C33.9999 30.0691 30.0691 33.9999 25.1999 33.9999H10.7999C5.93072 33.9999 1.9999 30.0691 1.9999 25.1999V10.7999C1.9999 5.93072 5.93072 1.9999 10.7999 1.9999ZM27.5999 6.7999C27.1756 6.7999 26.7686 6.96847 26.4685 7.26853C26.1685 7.56859 25.9999 7.97556 25.9999 8.3999C25.9999 8.82425 26.1685 9.23121 26.4685 9.53127C26.7686 9.83133 27.1756 9.9999 27.5999 9.9999C28.0242 9.9999 28.4312 9.83133 28.7313 9.53127C29.0313 9.23121 29.1999 8.82425 29.1999 8.3999C29.1999 7.97556 29.0313 7.56859 28.7313 7.26853C28.4312 6.96847 28.0242 6.7999 27.5999 6.7999ZM17.9999 9.1999C13.1493 9.1999 9.1999 13.1493 9.1999 17.9999C9.1999 22.8505 13.1493 26.7999 17.9999 26.7999C22.8505 26.7999 26.7999 22.8505 26.7999 17.9999C26.7999 13.1493 22.8505 9.1999 17.9999 9.1999ZM17.9999 10.7999C21.9858 10.7999 25.1999 14.014 25.1999 17.9999C25.1999 21.9858 21.9858 25.1999 17.9999 25.1999C14.014 25.1999 10.7999 21.9858 10.7999 17.9999C10.7999 14.014 14.014 10.7999 17.9999 10.7999Z" fill="white"/>
</svg>
