<svg width="296" height="43" viewBox="0 0 296 43" fill="none" xmlns="http://www.w3.org/2000/svg">
<path d="M11.2294 36.2423V28.9434L22.2165 17.9108L33.2036 28.9434V36.2423H11.2294Z" stroke="#EE7711" stroke-width="1.51546"/>
<path d="M1 37V23.3043L22.2165 2L43.433 23.3043V37" stroke="#EE7711" stroke-width="1.51546"/>
<path d="M78.8959 41.7887C79.005 41.7887 79.1142 41.7887 79.2233 41.7887V42.0614C78.7141 42.1342 78.1412 42.1706 77.5047 42.1706C76.8864 42.1706 76.1135 42.0342 75.1861 41.7614C74.2768 41.4886 73.4493 40.9794 72.7037 40.2338C71.1762 38.7062 70.2487 36.724 69.9213 34.2871L68.2574 22.1482L62.5835 34.9691C62.0743 36.0784 61.7651 37.0059 61.656 37.7515H61.3832L54.3181 22.3938L53.1179 35.9511C53.0815 36.2602 53.1724 36.533 53.3907 36.7694C53.6271 37.0059 53.8817 37.1241 54.1545 37.1241H54.5909V37.3696H49.2989V37.0968H49.7354C50.2264 37.0968 50.6537 36.9513 51.0175 36.6603C51.3993 36.3512 51.6358 35.9511 51.7267 35.4601L53.4452 20.5661C51.8449 17.42 49.9263 15.8469 47.6895 15.8469C47.4895 15.8469 47.2803 15.856 47.0621 15.8742V15.6014C47.5531 15.4741 47.9532 15.4105 48.2623 15.4105C48.5715 15.4105 48.9079 15.4287 49.2716 15.4651C49.6353 15.4832 50.0627 15.5651 50.5537 15.7106C51.0447 15.856 51.5085 16.0743 51.9449 16.3652C52.3814 16.638 52.7633 16.929 53.0906 17.2381C53.4179 17.5291 53.7271 17.8565 54.0181 18.2202C54.5091 18.8748 54.9001 19.5022 55.191 20.1024L61.7651 34.3417L69.103 17.8928H69.3485L71.8854 34.0416C72.2673 36.5876 73.0856 38.5153 74.3404 39.8246C75.6134 41.134 77.1319 41.7887 78.8959 41.7887ZM93.808 37.0968H94.0262V37.3696H87.8886V37.0968H88.1341C88.516 37.0968 88.7979 36.9786 88.9798 36.7422C89.1798 36.4876 89.2798 36.2512 89.2798 36.0329C89.2798 35.8147 89.2434 35.5965 89.1707 35.3782L87.4249 30.7409H80.0597L78.2321 35.4055C78.1593 35.6238 78.123 35.842 78.123 36.0602C78.123 36.2602 78.2139 36.4876 78.3958 36.7422C78.5958 36.9786 78.8868 37.0968 79.2687 37.0968H79.5142V37.3696H74.0312V37.0968H74.2767C74.7314 37.0968 75.1769 36.9513 75.6134 36.6603C76.0498 36.3694 76.4044 35.942 76.6772 35.3782L82.8421 20.7025C83.515 19.2295 83.8514 18.2929 83.8514 17.8928H84.0969L91.4075 35.3782C91.6621 35.942 92.0076 36.3694 92.4441 36.6603C92.8806 36.9513 93.3352 37.0968 93.808 37.0968ZM80.3871 29.9226H87.0975L83.8241 21.1662L80.3871 29.9226ZM100.953 19.1204H99.2068V35.3782C99.2068 35.8511 99.3705 36.2602 99.6978 36.6058C100.043 36.9331 100.462 37.0968 100.953 37.0968H101.28L101.307 37.3696H95.3333V37.0968H95.6879C96.1607 37.0968 96.5608 36.9331 96.8881 36.6058C97.2337 36.2784 97.4155 35.8784 97.4337 35.4055V20.266C97.4155 19.7932 97.2337 19.3931 96.8881 19.0658C96.5608 18.7203 96.1607 18.5475 95.6879 18.5475H95.3333V18.2747H102.698C104.353 18.2747 105.654 18.7385 106.599 19.6659C107.545 20.5752 108.018 21.7664 108.018 23.2394C108.018 24.6942 107.563 25.9581 106.654 27.0311C105.763 28.0858 104.672 28.6132 103.38 28.6132C103.653 28.7405 103.971 28.9951 104.335 29.377C104.717 29.7407 105.053 30.1226 105.344 30.5227C106.908 32.7595 107.927 34.1416 108.4 34.669C108.872 35.1782 109.209 35.5328 109.409 35.7329C109.609 35.9147 109.827 36.0966 110.064 36.2784C110.3 36.4603 110.536 36.6058 110.773 36.7149C111.3 36.9695 111.864 37.0968 112.464 37.0968V37.3696H110.964C110.182 37.3696 109.454 37.2332 108.781 36.9604C108.109 36.6694 107.599 36.3785 107.254 36.0875C106.927 35.7783 106.636 35.4874 106.381 35.2146C106.145 34.9236 105.472 33.978 104.362 32.3776C103.253 30.7773 102.607 29.868 102.426 29.6498C102.244 29.4134 102.053 29.1861 101.853 28.9678C101.271 28.3495 100.689 28.0404 100.107 28.0404V27.7676C100.252 27.7858 100.443 27.7949 100.68 27.7949C100.916 27.7949 101.207 27.7858 101.553 27.7676C103.808 27.713 105.226 26.7674 105.808 24.9306C105.917 24.5669 105.972 24.2305 105.972 23.9213C105.972 23.594 105.972 23.3849 105.972 23.2939C105.935 22.0755 105.617 21.0935 105.017 20.3479C104.417 19.6023 103.608 19.2022 102.589 19.1476C102.153 19.1294 101.607 19.1204 100.953 19.1204ZM122.307 37.7515C119.434 37.7333 117.088 36.8149 115.269 34.9964C113.469 33.1778 112.569 30.7864 112.569 27.8221C112.569 24.8397 113.469 22.4392 115.269 20.6207C117.088 18.8021 119.488 17.8928 122.471 17.8928C124.908 17.8928 127.063 18.5111 128.936 19.7478L129.481 23.594H129.236C128.836 22.03 128.026 20.8298 126.808 19.9933C125.59 19.1385 124.144 18.7112 122.471 18.7112C120.088 18.7112 118.179 19.5386 116.742 21.1935C115.324 22.8484 114.615 25.0398 114.615 27.7676C114.615 30.4954 115.315 32.6959 116.715 34.3689C118.133 36.0238 119.998 36.8786 122.307 36.9331C124.344 36.9331 126.044 36.3785 127.408 35.2691C128.881 34.0689 129.772 32.1139 130.081 29.4043H130.3L129.972 33.687C128.317 36.3966 125.762 37.7515 122.307 37.7515ZM133.648 37.0968C134.121 37.0968 134.521 36.9331 134.849 36.6058C135.194 36.2602 135.376 35.8511 135.394 35.3782V20.1024C135.394 19.6659 135.222 19.3022 134.876 19.0112C134.53 18.7021 134.121 18.5475 133.648 18.5475H133.321L133.294 18.2747H141.286C141.85 18.2747 142.459 18.2202 143.114 18.1111C143.787 18.0019 144.26 17.8928 144.533 17.7837V21.2208H144.26V20.7298C144.26 20.2933 144.105 19.9205 143.796 19.6114C143.505 19.3022 143.15 19.1385 142.732 19.1204H137.167V27.5494H141.777C142.141 27.5312 142.45 27.3948 142.705 27.1402C142.959 26.8856 143.087 26.5673 143.087 26.1854V25.8035H143.36V30.1135H143.087V29.7044C143.087 29.3406 142.959 29.0315 142.705 28.7769C142.468 28.5223 142.168 28.3859 141.805 28.3677H137.167V36.5239H141.068C142.414 36.5239 143.441 36.2239 144.151 35.6238C144.86 35.0236 145.451 34.1325 145.924 32.9505H146.197L144.614 37.3696H133.294V37.0968H133.648ZM149.126 37.0968C149.599 37.0968 149.999 36.9331 150.326 36.6058C150.672 36.2602 150.853 35.8511 150.872 35.3782V20.266C150.853 19.7932 150.672 19.3931 150.326 19.0658C149.999 18.7203 149.599 18.5475 149.126 18.5475H148.771V18.2747H154.745V18.5475H154.39C153.736 18.5475 153.236 18.8294 152.89 19.3931C152.726 19.6659 152.645 19.9569 152.645 20.266V36.5239H156.545C157.891 36.5239 158.919 36.2239 159.628 35.6238C160.337 35.0236 160.928 34.1325 161.401 32.9505H161.674L160.092 37.3696H148.771V37.0968H149.126ZM165.929 20.6479C167.875 18.8112 170.394 17.8928 173.485 17.8928C176.595 17.8928 179.123 18.8112 181.068 20.6479C183.014 22.4665 183.987 24.8579 183.987 27.8221C183.987 30.7864 183.014 33.1869 181.068 35.0236C179.123 36.8422 176.595 37.7515 173.485 37.7515C170.394 37.7515 167.875 36.8422 165.929 35.0236C163.983 33.1869 163.01 30.7864 163.01 27.8221C163.01 24.8579 163.983 22.4665 165.929 20.6479ZM167.402 34.4235C168.948 36.0966 170.975 36.9331 173.485 36.9331C175.995 36.9331 178.013 36.0966 179.541 34.4235C181.087 32.7504 181.86 30.55 181.86 27.8221C181.86 25.0943 181.087 22.8939 179.541 21.2208C178.013 19.5477 175.995 18.7112 173.485 18.7112C170.975 18.7112 168.948 19.5477 167.402 21.2208C165.874 22.8939 165.111 25.0943 165.111 27.8221C165.111 30.55 165.874 32.7504 167.402 34.4235ZM217.721 42.0069C216.957 42.2069 216.275 42.3069 215.675 42.3069C215.093 42.3069 214.575 42.2706 214.12 42.1978C213.666 42.1251 213.175 41.9796 212.647 41.7614C212.138 41.5613 211.656 41.3249 211.202 41.0521C210.747 40.7794 210.292 40.4429 209.838 40.0428C209.001 39.37 208.237 38.6426 207.546 37.8606C206.874 37.0786 205.564 35.6147 203.618 33.4688C201.672 31.3047 200.381 29.868 199.745 29.1588C199.108 28.4495 198.617 28.0767 198.272 28.0404V27.7676C199.327 27.7676 200.027 27.7494 200.372 27.713C200.736 27.6585 201.118 27.5766 201.518 27.4675C201.918 27.3402 202.254 27.1766 202.527 26.9765C203.6 26.2855 204.137 25.1398 204.137 23.5394C204.137 22.2119 203.837 21.148 203.236 20.3479C202.654 19.5477 201.827 19.1385 200.754 19.1204H197.372V35.3782C197.372 35.8329 197.535 36.233 197.863 36.5785C198.208 36.924 198.626 37.0968 199.117 37.0968H199.445L199.472 37.3696H193.498V37.0968H193.853C194.307 37.0968 194.707 36.9331 195.053 36.6058C195.398 36.2784 195.58 35.8784 195.598 35.4055V20.266C195.58 19.7932 195.398 19.3931 195.053 19.0658C194.726 18.7203 194.325 18.5475 193.853 18.5475H193.498V18.2747H200.863C202.464 18.2747 203.746 18.7294 204.709 19.6386C205.691 20.5297 206.182 21.7209 206.182 23.2121C206.182 24.6851 205.737 25.9581 204.846 27.0311C203.955 28.0858 202.864 28.6132 201.572 28.6132C201.572 28.6132 201.563 28.6132 201.545 28.6132C202.163 29.2679 202.864 30.0317 203.646 30.9046C206.792 34.378 208.81 36.5603 209.701 37.4514C210.592 38.3425 211.374 39.0699 212.047 39.6337C212.738 40.2156 213.348 40.643 213.875 40.9158C214.948 41.4977 216.012 41.7887 217.067 41.7887C217.285 41.7887 217.503 41.7705 217.721 41.7341V42.0069ZM213.133 20.6479C215.079 18.8112 217.598 17.8928 220.689 17.8928C223.799 17.8928 226.327 18.8112 228.273 20.6479C230.219 22.4665 231.192 24.8579 231.192 27.8221C231.192 30.7864 230.219 33.1869 228.273 35.0236C226.327 36.8422 223.799 37.7515 220.689 37.7515C217.598 37.7515 215.079 36.8422 213.133 35.0236C211.187 33.1869 210.215 30.7864 210.215 27.8221C210.215 24.8579 211.187 22.4665 213.133 20.6479ZM214.606 34.4235C216.152 36.0966 218.18 36.9331 220.689 36.9331C223.199 36.9331 225.218 36.0966 226.745 34.4235C228.291 32.7504 229.064 30.55 229.064 27.8221C229.064 25.0943 228.291 22.8939 226.745 21.2208C225.218 19.5477 223.199 18.7112 220.689 18.7112C218.18 18.7112 216.152 19.5477 214.606 21.2208C213.079 22.8939 212.315 25.0943 212.315 27.8221C212.315 30.55 213.079 32.7504 214.606 34.4235ZM243.888 37.7515C241.014 37.7333 238.668 36.8149 236.85 34.9964C235.049 33.1778 234.149 30.7864 234.149 27.8221C234.149 24.8397 235.049 22.4392 236.85 20.6207C238.668 18.8021 241.069 17.8928 244.051 17.8928C246.488 17.8928 248.643 18.5111 250.516 19.7478L251.062 23.594H250.816C250.416 22.03 249.607 20.8298 248.388 19.9933C247.17 19.1385 245.724 18.7112 244.051 18.7112C241.669 18.7112 239.759 19.5386 238.323 21.1935C236.904 22.8484 236.195 25.0398 236.195 27.7676C236.195 30.4954 236.895 32.6959 238.295 34.3689C239.714 36.0238 241.578 36.8786 243.888 36.9331C245.924 36.9331 247.625 36.3785 248.989 35.2691C250.462 34.0689 251.353 32.1139 251.662 29.4043H251.88L251.553 33.687C249.898 36.3966 247.343 37.7515 243.888 37.7515ZM268.159 37.0968C268.632 37.0968 269.032 36.9331 269.359 36.6058C269.705 36.2602 269.887 35.8602 269.905 35.4055V28.3404H258.748V35.4055C258.748 35.8784 258.921 36.2784 259.266 36.6058C259.612 36.9331 260.021 37.0968 260.494 37.0968H260.848V37.3696H254.874V37.0968H255.229C255.702 37.0968 256.102 36.9331 256.429 36.6058C256.775 36.2784 256.957 35.8784 256.975 35.4055V20.2388C256.957 19.7659 256.775 19.3659 256.429 19.0385C256.102 18.7112 255.702 18.5475 255.229 18.5475H254.874V18.2747H260.848V18.5475H260.494C260.021 18.5475 259.612 18.7112 259.266 19.0385C258.939 19.3659 258.766 19.7659 258.748 20.2388V27.5221H269.905V20.2388C269.887 19.5841 269.596 19.0931 269.032 18.7657C268.759 18.6202 268.468 18.5475 268.159 18.5475H267.804V18.2747H273.778V18.5475H273.424C272.951 18.5475 272.542 18.7203 272.196 19.0658C271.869 19.3931 271.696 19.7932 271.678 20.266V35.4055C271.696 35.8784 271.869 36.2784 272.196 36.6058C272.542 36.9331 272.951 37.0968 273.424 37.0968H273.778V37.3696H267.804V37.0968H268.159ZM294.959 37.0968H295.177V37.3696H289.04V37.0968H289.285C289.667 37.0968 289.949 36.9786 290.131 36.7422C290.331 36.4876 290.431 36.2512 290.431 36.0329C290.431 35.8147 290.395 35.5965 290.322 35.3782L288.576 30.7409H281.211L279.383 35.4055C279.311 35.6238 279.274 35.842 279.274 36.0602C279.274 36.2602 279.365 36.4876 279.547 36.7422C279.747 36.9786 280.038 37.0968 280.42 37.0968H280.665V37.3696H275.182V37.0968H275.428C275.883 37.0968 276.328 36.9513 276.765 36.6603C277.201 36.3694 277.556 35.942 277.828 35.3782L283.993 20.7025C284.666 19.2295 285.003 18.2929 285.003 17.8928H285.248L292.559 35.3782C292.813 35.942 293.159 36.3694 293.595 36.6603C294.032 36.9513 294.486 37.0968 294.959 37.0968ZM281.538 29.9226H288.249L284.975 21.1662L281.538 29.9226Z" fill="white"/>
</svg>
