<svg width="32" height="29" viewBox="0 0 32 29" fill="none" xmlns="http://www.w3.org/2000/svg">
<path d="M29.6 5.11706H22.4V2.55853C22.4 1.14793 21.3232 0 20 0H12C10.6768 0 9.6 1.14793 9.6 2.55853V5.11706H2.4C1.0768 5.11706 0 6.26499 0 7.6756V26.4382C0 27.8488 1.0768 28.9967 2.4 28.9967H29.6C30.9232 28.9967 32 27.8488 32 26.4382V7.6756C32 6.26499 30.9232 5.11706 29.6 5.11706ZM11.2 2.55853C11.2 2.08776 11.5584 1.70569 12 1.70569H20C20.4416 1.70569 20.8 2.08776 20.8 2.55853V5.11706H11.2V2.55853ZM2.4 6.82275H29.6C30.0416 6.82275 30.4 7.20483 30.4 7.6756V20.4683H27.2V19.6154C27.2 19.1446 26.8416 18.7626 26.4 18.7626H23.2C22.7584 18.7626 22.4 19.1446 22.4 19.6154V20.4683H9.6V19.6154C9.6 19.1446 9.2416 18.7626 8.8 18.7626H5.6C5.1584 18.7626 4.8 19.1446 4.8 19.6154V20.4683H1.6V7.6756C1.6 7.20483 1.9584 6.82275 2.4 6.82275ZM25.6 20.4683V22.1739H24V20.4683H25.6ZM8 20.4683V22.1739H6.4V20.4683H8ZM29.6 27.291H2.4C1.9584 27.291 1.6 26.9089 1.6 26.4382V22.1739H4.8V23.0268C4.8 23.4976 5.1584 23.8796 5.6 23.8796H8.8C9.2416 23.8796 9.6 23.4976 9.6 23.0268V22.1739H22.4V23.0268C22.4 23.4976 22.7584 23.8796 23.2 23.8796H26.4C26.8416 23.8796 27.2 23.4976 27.2 23.0268V22.1739H30.4V26.4382C30.4 26.9089 30.0416 27.291 29.6 27.291Z" fill="url(#paint0_linear_6_560)"/>
<defs>
<linearGradient id="paint0_linear_6_560" x1="16" y1="0" x2="16" y2="28.9967" gradientUnits="userSpaceOnUse">
<stop stop-color="#FF8833"/>
<stop offset="1" stop-color="#E8701B"/>
</linearGradient>
</defs>
</svg>
