<svg width="32" height="29" viewBox="0 0 32 29" fill="none" xmlns="http://www.w3.org/2000/svg">
<path d="M31.5991 0.113704C31.3515 -0.0251788 31.0416 -0.0373884 30.7806 0.0801276L21.0521 4.48774L11.3235 0.0801276C11.0861 -0.0267051 10.8081 -0.0267051 10.5707 0.0801276L0.464867 4.65867C0.18022 4.7884 0 5.05243 0 5.34088V28.2336C0 28.4976 0.151587 28.7433 0.399179 28.8822C0.533923 28.9585 0.687194 28.9967 0.84215 28.9967C0.970156 28.9967 1.09985 28.9692 1.21943 28.9158L10.9479 24.5082L20.6765 28.9158C20.9139 29.0226 21.1935 29.0226 21.4293 28.9158L31.5351 24.3373C31.8198 24.2075 32 23.9435 32 23.6551V0.762331C32 0.498302 31.8484 0.252586 31.6008 0.113704H31.5991ZM10.1024 23.1835L1.68093 26.9989V5.81247L10.1024 1.99701V23.1835ZM11.7867 1.99701L20.2082 5.81247V26.9989L11.7867 23.1835V1.99701ZM30.314 23.1835L21.8925 26.9989V5.81247L30.314 1.99701V23.1835Z" fill="url(#paint0_linear_6_563)"/>
<defs>
<linearGradient id="paint0_linear_6_563" x1="16" y1="0" x2="16" y2="28.9967" gradientUnits="userSpaceOnUse">
<stop stop-color="#FF8833"/>
<stop offset="1" stop-color="#E8701B"/>
</linearGradient>
</defs>
</svg>
