<svg width="1256" height="101" viewBox="0 0 1256 101" fill="none" xmlns="http://www.w3.org/2000/svg">
<g clip-path="url(#clip0_6_673)">
<path d="M636.861 56.44C695.271 45.65 751.828 26.31 810.077 14.58C893.049 -2.14 979.456 -3.15 1062.3 14.19C1142.8 31 1226.28 72 1305.83 92.83C1376.37 111.31 1453.39 118.92 1521.68 95.83V0H313.199V27.35C416.389 66.2042 528.322 76.2645 636.861 56.44Z" fill="#DDDDC3" fill-opacity="0.5"/>
<path d="M343.352 47.5037C405.315 38.4221 465.313 22.1442 527.105 12.2715C615.125 -1.80117 706.788 -2.65125 794.669 11.9432C880.072 26.0917 968.626 60.6 1053.01 78.1319C1127.85 93.6859 1209.56 100.091 1282 80.6569V0H0V23.0196C109.467 55.7218 228.21 64.1893 343.352 47.5037V47.5037Z" fill="#DDDDC3"/>
</g>
<defs>
<clipPath id="clip0_6_673">
<rect width="1282" height="101" fill="white"/>
</clipPath>
</defs>
</svg>
