<svg width="1256" height="62" viewBox="0 0 1256 62" fill="none" xmlns="http://www.w3.org/2000/svg">
<g clip-path="url(#clip0_9_768)">
<path d="M922.54 32.8393C861.641 38.4142 802.673 48.4065 741.941 54.467C655.431 63.1057 565.341 63.6275 478.968 54.6685C395.031 45.9833 307.997 24.8 225.057 14.0378C151.505 4.48983 71.2006 0.558001 5.72205e-05 12.4878V62H1260V47.8692C1152.41 27.7945 1035.71 22.5967 922.54 32.8393V32.8393Z" fill="#1A1C11"/>
<path d="M458.54 33.7593C397.641 39.3341 338.673 49.3264 277.941 55.3869C191.431 64.0256 101.341 64.5474 14.968 55.5884C-68.969 46.9033 -156.003 25.7199 -238.943 14.9578C-312.495 5.40976 -392.799 1.47792 -464 13.4078V62.9199H796V48.7891C688.411 28.7144 571.706 23.5166 458.54 33.7593V33.7593Z" fill="#1A1C11" fill-opacity="0.5"/>
</g>
<defs>
<clipPath id="clip0_9_768">
<rect width="1260" height="62" fill="white" transform="translate(1260 62) rotate(-180)"/>
</clipPath>
</defs>
</svg>
