<svg width="26" height="31" viewBox="0 0 26 31" fill="none" xmlns="http://www.w3.org/2000/svg">
<path d="M5.8002 24.6001C4.477 24.6001 3.4002 23.5233 3.4002 22.2001C3.4002 20.8769 4.477 19.8001 5.8002 19.8001C7.1234 19.8001 8.2002 20.8769 8.2002 22.2001C8.2002 23.5233 7.1234 24.6001 5.8002 24.6001ZM5.8002 21.4001C5.3586 21.4001 5.0002 21.7585 5.0002 22.2001C5.0002 22.6417 5.3586 23.0001 5.8002 23.0001C6.2418 23.0001 6.6002 22.6417 6.6002 22.2001C6.6002 21.7585 6.2418 21.4001 5.8002 21.4001Z" fill="url(#paint0_linear_10_783)"/>
<path d="M20.2002 24.6001C18.877 24.6001 17.8002 23.5233 17.8002 22.2001C17.8002 20.8769 18.877 19.8001 20.2002 19.8001C21.5234 19.8001 22.6002 20.8769 22.6002 22.2001C22.6002 23.5233 21.5234 24.6001 20.2002 24.6001ZM20.2002 21.4001C19.7586 21.4001 19.4002 21.7585 19.4002 22.2001C19.4002 22.6417 19.7586 23.0001 20.2002 23.0001C20.6418 23.0001 21.0002 22.6417 21.0002 22.2001C21.0002 21.7585 20.6418 21.4001 20.2002 21.4001Z" fill="url(#paint1_linear_10_783)"/>
<path d="M18.6002 7.0001H7.4002C6.9586 7.0001 6.6002 6.6417 6.6002 6.2001C6.6002 5.7585 6.9586 5.4001 7.4002 5.4001H18.6002C19.0418 5.4001 19.4002 5.7585 19.4002 6.2001C19.4002 6.6417 19.0418 7.0001 18.6002 7.0001Z" fill="url(#paint2_linear_10_783)"/>
<path d="M21.8002 8.6001H4.2002C3.7586 8.6001 3.4002 8.9585 3.4002 9.4001V17.4001C3.4002 17.8417 3.7586 18.2001 4.2002 18.2001H12.197C12.1986 18.2001 12.1986 18.2001 12.2002 18.2001C12.2018 18.2001 12.2018 18.2001 12.2034 18.2001H20.197C20.1986 18.2001 20.1986 18.2001 20.2002 18.2001C20.2018 18.2001 20.2018 18.2001 20.2034 18.2001H21.8002C22.2418 18.2001 22.6002 17.8417 22.6002 17.4001V9.4001C22.6002 8.9585 22.2418 8.6001 21.8002 8.6001ZM5.0002 10.2001H21.0002V16.6001H20.4418L15.8434 13.5345C15.4754 13.2897 14.9794 13.3889 14.7346 13.7569C14.4898 14.1249 14.589 14.6209 14.957 14.8657L17.5586 16.6001H12.4434L7.845 13.5345C7.477 13.2897 6.981 13.3889 6.7362 13.7569C6.4914 14.1249 6.5906 14.6209 6.9586 14.8657L9.56019 16.6001H5.0018V10.2001H5.0002Z" fill="url(#paint3_linear_10_783)"/>
<path d="M21.9858 1.8529C19.805 1.0225 16.781 0.600098 13.0002 0.600098C9.2194 0.600098 6.197 1.0209 4.0146 1.8529C0.860995 3.0545 0.200195 4.8801 0.200195 6.2001V23.8001C0.200195 25.7313 1.5762 27.3473 3.4002 27.7201V29.4001C3.4002 30.2817 4.1186 31.0001 5.0002 31.0001H6.6002C7.4818 31.0001 8.2002 30.2817 8.2002 29.4001V27.8001H17.8002V29.4001C17.8002 30.2817 18.5186 31.0001 19.4002 31.0001H21.0002C21.8818 31.0001 22.6002 30.2817 22.6002 29.4001V27.7201C24.4242 27.3489 25.8002 25.7329 25.8002 23.8001V6.2001C25.8002 4.8801 25.1378 3.0545 21.9858 1.8529ZM6.6002 29.4001H5.0002V27.8001H6.6002V29.4001ZM19.4002 29.4001V27.8001H21.0002V29.4001H19.4002ZM24.2002 23.8001C24.2002 25.1233 23.1234 26.2001 21.8002 26.2001H4.2002C2.877 26.2001 1.8002 25.1233 1.8002 23.8001V6.2001C1.8002 5.0113 2.7378 4.0513 4.5858 3.3473C6.557 2.5969 9.4658 2.2001 13.0002 2.2001C16.5346 2.2001 19.445 2.5969 21.4146 3.3473C23.2626 4.0513 24.2002 5.0113 24.2002 6.2001V23.8001Z" fill="url(#paint4_linear_10_783)"/>
<defs>
<linearGradient id="paint0_linear_10_783" x1="13.0002" y1="0.600098" x2="13.0002" y2="31.0001" gradientUnits="userSpaceOnUse">
<stop stop-color="#FF8833"/>
<stop offset="1" stop-color="#E8701B"/>
</linearGradient>
<linearGradient id="paint1_linear_10_783" x1="13.0002" y1="0.600098" x2="13.0002" y2="31.0001" gradientUnits="userSpaceOnUse">
<stop stop-color="#FF8833"/>
<stop offset="1" stop-color="#E8701B"/>
</linearGradient>
<linearGradient id="paint2_linear_10_783" x1="13.0002" y1="0.600098" x2="13.0002" y2="31.0001" gradientUnits="userSpaceOnUse">
<stop stop-color="#FF8833"/>
<stop offset="1" stop-color="#E8701B"/>
</linearGradient>
<linearGradient id="paint3_linear_10_783" x1="13.0002" y1="0.600098" x2="13.0002" y2="31.0001" gradientUnits="userSpaceOnUse">
<stop stop-color="#FF8833"/>
<stop offset="1" stop-color="#E8701B"/>
</linearGradient>
<linearGradient id="paint4_linear_10_783" x1="13.0002" y1="0.600098" x2="13.0002" y2="31.0001" gradientUnits="userSpaceOnUse">
<stop stop-color="#FF8833"/>
<stop offset="1" stop-color="#E8701B"/>
</linearGradient>
</defs>
</svg>
