<svg width="12" height="20" viewBox="0 0 12 20" fill="none" xmlns="http://www.w3.org/2000/svg">
<path d="M5.99998 20C5.84698 20 5.70198 19.93 5.60698 19.809C5.54998 19.736 4.18898 17.995 2.80998 15.424C1.99798 13.911 1.34998 12.425 0.884977 11.008C0.297977 9.221 0.000976562 7.536 0.000976562 6C0.000976562 2.692 2.69298 0 6.00098 0C9.30898 0 12.001 2.692 12.001 6C12.001 7.536 11.703 9.22 11.117 11.008C10.652 12.425 10.004 13.911 9.19198 15.424C7.81198 17.995 6.45198 19.736 6.39498 19.809C6.29998 19.93 6.15498 20 6.00198 20H5.99998ZM5.99998 1C3.24298 1 0.999977 3.243 0.999977 6C0.999977 9.254 2.46298 12.664 3.69098 14.951C4.59298 16.632 5.49998 17.965 5.99998 18.661C6.50198 17.962 7.41498 16.621 8.31798 14.935C9.54098 12.652 11 9.248 11 6C11 3.243 8.75698 1 5.99998 1Z" fill="url(#paint0_linear_10_781)"/>
<path d="M5.99998 9C4.34598 9 2.99998 7.654 2.99998 6C2.99998 4.346 4.34598 3 5.99998 3C7.65398 3 8.99998 4.346 8.99998 6C8.99998 7.654 7.65398 9 5.99998 9ZM5.99998 4C4.89698 4 3.99998 4.897 3.99998 6C3.99998 7.103 4.89698 8 5.99998 8C7.10298 8 7.99998 7.103 7.99998 6C7.99998 4.897 7.10298 4 5.99998 4Z" fill="url(#paint1_linear_10_781)"/>
<defs>
<linearGradient id="paint0_linear_10_781" x1="6.00098" y1="0" x2="6.00098" y2="20" gradientUnits="userSpaceOnUse">
<stop stop-color="#FF8833"/>
<stop offset="1" stop-color="#E8701B"/>
</linearGradient>
<linearGradient id="paint1_linear_10_781" x1="6.00098" y1="0" x2="6.00098" y2="20" gradientUnits="userSpaceOnUse">
<stop stop-color="#FF8833"/>
<stop offset="1" stop-color="#E8701B"/>
</linearGradient>
</defs>
</svg>
