<svg width="38" height="38" viewBox="0 0 38 38" fill="none" xmlns="http://www.w3.org/2000/svg">
<path d="M19.0001 0.600098C8.84773 0.600098 0.600098 8.84773 0.600098 19.0001C0.600098 22.2634 1.49505 25.3088 2.9876 27.9673L0.629785 36.3845C0.592117 36.5192 0.590415 36.6614 0.624849 36.7969C0.659283 36.9325 0.72865 37.0567 0.826033 37.157C0.923417 37.2574 1.04541 37.3305 1.17986 37.3691C1.31431 37.4076 1.45651 37.4102 1.59229 37.3767L10.3688 35.2017C12.9478 36.5784 15.8742 37.4001 19.0001 37.4001C29.1525 37.4001 37.4001 29.1525 37.4001 19.0001C37.4001 8.84773 29.1525 0.600098 19.0001 0.600098ZM19.0001 2.2001C28.2877 2.2001 35.8001 9.71247 35.8001 19.0001C35.8001 28.2877 28.2877 35.8001 19.0001 35.8001C16.0225 35.8001 13.2338 35.0238 10.8095 33.6673C10.6322 33.5682 10.4238 33.5403 10.2267 33.5892L2.54072 35.4938L4.60166 28.1407C4.63115 28.0368 4.63929 27.928 4.6256 27.8209C4.6119 27.7137 4.57665 27.6104 4.52197 27.5173C3.04865 25.019 2.2001 22.1122 2.2001 19.0001C2.2001 9.71247 9.71247 2.2001 19.0001 2.2001ZM12.3142 9.4001C11.8013 9.4001 11.0689 9.59089 10.4673 10.2392C10.1059 10.6285 8.6001 12.0957 8.6001 14.6751C8.6001 17.3643 10.4652 19.6848 10.6907 19.9829H10.6923V19.9845C10.6709 19.9564 10.9785 20.4019 11.3892 20.936C11.7998 21.4702 12.374 22.1718 13.0954 22.9313C14.5382 24.4504 16.5667 26.206 19.0845 27.2798C20.2439 27.7735 21.1586 28.0716 21.8517 28.2892C23.136 28.6924 24.3058 28.6311 25.1845 28.5017C25.8422 28.4048 26.5656 28.089 27.2813 27.636C27.9971 27.1831 28.6986 26.6199 29.0079 25.7642C29.2295 25.1507 29.3422 24.5838 29.3829 24.1173C29.4033 23.884 29.4059 23.6782 29.3907 23.4876C29.3755 23.297 29.3918 23.151 29.2142 22.8595C28.8417 22.2479 28.4199 22.232 27.9798 22.0142C27.7352 21.8931 27.039 21.5532 26.3407 21.2204C25.6432 20.888 25.0392 20.5937 24.6673 20.461C24.4323 20.3765 24.1453 20.2548 23.7313 20.3017C23.3174 20.3485 22.9085 20.6472 22.6704 21.0001C22.4448 21.3346 21.5364 22.4068 21.2595 22.722C21.2558 22.7197 21.2798 22.7308 21.1704 22.6767C20.8279 22.5072 20.409 22.363 19.7892 22.036C19.1693 21.7091 18.3939 21.2262 17.5454 20.4782V20.4767C16.2825 19.3649 15.3979 17.969 15.1188 17.5001C15.1376 17.4777 15.1166 17.5048 15.1563 17.4657L15.1579 17.4642C15.4431 17.1832 15.6959 16.8477 15.9095 16.6017C16.2123 16.2528 16.3459 15.9452 16.4907 15.6579C16.7793 15.0852 16.6186 14.4551 16.4517 14.1235V14.122C16.4632 14.1449 16.3614 13.9202 16.2517 13.661C16.1417 13.4011 16.0014 13.0641 15.8517 12.7048C15.5521 11.9861 15.2177 11.18 15.0188 10.7079V10.7063C14.7846 10.1502 14.4676 9.74962 14.0532 9.55635C13.6388 9.36307 13.2727 9.41802 13.2579 9.41729H13.2563C12.9606 9.40364 12.6361 9.4001 12.3142 9.4001ZM12.3142 11.0001C12.6226 11.0001 12.9267 11.0039 13.1813 11.0157C13.4433 11.0288 13.427 11.0299 13.3767 11.0063C13.3255 10.9825 13.3949 10.9747 13.5438 11.3282C13.7386 11.7905 14.0746 12.5995 14.3751 13.3204C14.5253 13.6809 14.6659 14.0192 14.7782 14.2845C14.8905 14.5498 14.9514 14.6979 15.022 14.8392V14.8407L15.0235 14.8423C15.0928 14.9789 15.0866 14.8914 15.0626 14.9392C14.8938 15.2742 14.8709 15.3565 14.7001 15.5532C14.4401 15.8528 14.1749 16.1868 14.0345 16.3251C13.9116 16.4458 13.69 16.6337 13.5517 17.0017C13.4131 17.3702 13.4778 17.8758 13.7001 18.2532C13.9961 18.7558 14.9716 20.3435 16.4876 21.6782C17.4423 22.5198 18.3317 23.0768 19.0423 23.4517C19.7528 23.8265 20.3315 24.0454 20.461 24.1095C20.7685 24.2617 21.1046 24.3798 21.4954 24.3329C21.8862 24.286 22.2231 24.0489 22.4376 23.8063L22.4392 23.8048C22.7246 23.4812 23.5728 22.5127 23.9798 21.9157C23.997 21.9218 23.9914 21.9171 24.1267 21.9657V21.9673H24.1282C24.19 21.9893 24.9635 22.3355 25.6532 22.6642C26.3429 22.9928 27.0429 23.3344 27.2704 23.447C27.5987 23.6094 27.7538 23.7152 27.7938 23.7157C27.7966 23.7861 27.7993 23.8624 27.7892 23.9782C27.7611 24.2995 27.6752 24.7443 27.5032 25.2204C27.419 25.4535 26.9801 25.9342 26.4267 26.2845C25.8732 26.6347 25.1996 26.8821 24.9501 26.9188C24.2 27.0294 23.3094 27.0697 22.3313 26.7626C21.6532 26.5497 20.8075 26.2742 19.7126 25.8079C17.4919 24.8609 15.6046 23.2493 14.2563 21.8298C13.5822 21.12 13.0421 20.4593 12.6579 19.9595C12.2744 19.4606 12.1069 19.2009 11.9673 19.0173L11.9657 19.0157C11.7179 18.6879 10.2001 16.5768 10.2001 14.6751C10.2001 12.6625 11.1349 11.8732 11.6407 11.3282C11.9063 11.0421 12.1966 11.0001 12.3142 11.0001Z" fill="white"/>
</svg>
